<?xml version="1.0" standalone="no"?><!DOCTYPE svg PUBLIC "-//W3C//DTD SVG 1.1//EN" "http://www.w3.org/Graphics/SVG/1.1/DTD/svg11.dtd"><svg t="1542165305527" class="icon" style="" viewBox="0 0 1024 1024" version="1.1" xmlns="http://www.w3.org/2000/svg" p-id="1136" xmlns:xlink="http://www.w3.org/1999/xlink" width="32" height="32"><defs><style type="text/css"></style></defs><path d="M200.753 408.251c-57.062 0-103.749 46.687-103.749 103.749s46.687 103.749 103.749 103.749S304.502 569.062 304.502 512s-46.687-103.749-103.749-103.749z m622.494 0c-57.062 0-103.749 46.687-103.749 103.749s46.687 103.749 103.749 103.749S926.996 569.062 926.996 512s-46.687-103.749-103.749-103.749z m-311.247 0c-57.062 0-103.749 46.687-103.749 103.749S454.938 615.749 512 615.749 615.749 569.062 615.749 512 569.062 408.251 512 408.251z" fill="#515151" p-id="1137"></path></svg>